<svg width="554" height="554" viewBox="0 0 554 554" fill="none" xmlns="http://www.w3.org/2000/svg">
<rect width="554" height="554" fill="#333333"/>
<path d="M101.047 277V242.875H111.547C114.547 242.875 117.227 243.555 119.586 244.914C121.961 246.258 123.812 248.18 125.141 250.68C126.469 253.164 127.133 255.992 127.133 259.164V260.734C127.133 263.906 126.477 266.727 125.164 269.195C123.867 271.664 122.031 273.578 119.656 274.938C117.281 276.297 114.602 276.984 111.617 277H101.047ZM108.078 248.57V271.352H111.477C114.227 271.352 116.328 270.453 117.781 268.656C119.234 266.859 119.977 264.289 120.008 260.945V259.141C120.008 255.672 119.289 253.047 117.852 251.266C116.414 249.469 114.312 248.57 111.547 248.57H108.078ZM138.566 253.352L135.378 251.5C136.722 249.391 137.417 247.211 137.464 244.961V241H142.855V244.633C142.855 246.039 142.464 247.562 141.683 249.203C140.902 250.844 139.862 252.227 138.566 253.352ZM170.577 268.047C170.577 266.719 170.108 265.703 169.17 265C168.233 264.281 166.545 263.531 164.108 262.75C161.67 261.953 159.741 261.172 158.319 260.406C154.444 258.312 152.506 255.492 152.506 251.945C152.506 250.102 153.022 248.461 154.053 247.023C155.1 245.57 156.592 244.438 158.53 243.625C160.483 242.812 162.67 242.406 165.092 242.406C167.53 242.406 169.702 242.852 171.608 243.742C173.514 244.617 174.991 245.859 176.037 247.469C177.1 249.078 177.631 250.906 177.631 252.953H170.6C170.6 251.391 170.108 250.18 169.123 249.32C168.139 248.445 166.756 248.008 164.975 248.008C163.256 248.008 161.92 248.375 160.967 249.109C160.014 249.828 159.537 250.781 159.537 251.969C159.537 253.078 160.092 254.008 161.202 254.758C162.327 255.508 163.975 256.211 166.147 256.867C170.147 258.07 173.061 259.562 174.889 261.344C176.717 263.125 177.631 265.344 177.631 268C177.631 270.953 176.514 273.273 174.28 274.961C172.045 276.633 169.037 277.469 165.256 277.469C162.631 277.469 160.241 276.992 158.084 276.039C155.928 275.07 154.28 273.75 153.139 272.078C152.014 270.406 151.452 268.469 151.452 266.266H158.506C158.506 270.031 160.756 271.914 165.256 271.914C166.928 271.914 168.233 271.578 169.17 270.906C170.108 270.219 170.577 269.266 170.577 268.047ZM215.244 260.711C215.244 264.07 214.65 267.016 213.463 269.547C212.275 272.078 210.572 274.031 208.353 275.406C206.15 276.781 203.619 277.469 200.759 277.469C197.931 277.469 195.408 276.789 193.189 275.43C190.97 274.07 189.252 272.133 188.033 269.617C186.814 267.086 186.197 264.18 186.181 260.898V259.211C186.181 255.852 186.783 252.898 187.986 250.352C189.205 247.789 190.916 245.828 193.119 244.469C195.338 243.094 197.869 242.406 200.713 242.406C203.556 242.406 206.08 243.094 208.283 244.469C210.502 245.828 212.213 247.789 213.416 250.352C214.634 252.898 215.244 255.844 215.244 259.188V260.711ZM208.119 259.164C208.119 255.586 207.478 252.867 206.197 251.008C204.916 249.148 203.088 248.219 200.713 248.219C198.353 248.219 196.533 249.141 195.252 250.984C193.97 252.812 193.322 255.5 193.306 259.047V260.711C193.306 264.195 193.947 266.898 195.228 268.82C196.509 270.742 198.353 271.703 200.759 271.703C203.119 271.703 204.931 270.781 206.197 268.938C207.463 267.078 208.103 264.375 208.119 260.828V259.164ZM250.981 242.875V265.352C250.981 269.086 249.809 272.039 247.466 274.211C245.137 276.383 241.95 277.469 237.903 277.469C233.919 277.469 230.755 276.414 228.411 274.305C226.067 272.195 224.872 269.297 224.825 265.609V242.875H231.856V265.398C231.856 267.633 232.387 269.266 233.45 270.297C234.528 271.312 236.012 271.82 237.903 271.82C241.856 271.82 243.864 269.742 243.927 265.586V242.875H250.981ZM269 271.352H286.203V277H260.211V272.875L277.086 248.57H260.234V242.875H285.828V246.906L269 271.352ZM315.05 269.969H302.722L300.378 277H292.902L305.605 242.875H312.12L324.894 277H317.417L315.05 269.969ZM304.62 264.273H313.152L308.863 251.5L304.62 264.273ZM348.252 267.812C348.252 266.234 348.689 264.773 349.564 263.43C350.455 262.086 352.08 260.594 354.439 258.953C353.423 257.594 352.627 256.32 352.048 255.133C351.47 253.93 351.181 252.68 351.181 251.383C351.181 248.727 352.017 246.57 353.689 244.914C355.377 243.242 357.642 242.406 360.486 242.406C363.033 242.406 365.119 243.164 366.744 244.68C368.384 246.195 369.205 248.086 369.205 250.352C369.205 253.07 367.83 255.469 365.08 257.547L362.455 259.445L368.337 266.289C369.259 264.477 369.72 262.477 369.72 260.289H375.486C375.486 264.727 374.462 268.32 372.416 271.07L377.525 277H369.837L368.08 274.984C365.564 276.641 362.673 277.469 359.408 277.469C356.033 277.469 353.33 276.586 351.298 274.82C349.267 273.039 348.252 270.703 348.252 267.812ZM359.736 272.031C361.361 272.031 362.9 271.578 364.353 270.672L357.627 262.891L357.134 263.242C355.744 264.43 355.048 265.828 355.048 267.438C355.048 268.797 355.478 269.906 356.337 270.766C357.212 271.609 358.345 272.031 359.736 272.031ZM357.252 251.289C357.252 252.461 357.939 253.938 359.314 255.719L361.119 254.523C362.041 253.93 362.673 253.352 363.017 252.789C363.377 252.227 363.556 251.555 363.556 250.773C363.556 249.992 363.267 249.312 362.689 248.734C362.111 248.156 361.369 247.867 360.462 247.867C359.494 247.867 358.712 248.18 358.119 248.805C357.541 249.43 357.252 250.258 357.252 251.289ZM409.719 271.352H424.648V277H402.688V242.875H409.719V271.352ZM454.034 262.211H440.534V271.352H456.378V277H433.503V242.875H456.331V248.57H440.534V256.703H454.034V262.211ZM108.078 320.977V333H101.047V298.875H114.359C116.922 298.875 119.172 299.344 121.109 300.281C123.062 301.219 124.562 302.555 125.609 304.289C126.656 306.008 127.18 307.969 127.18 310.172C127.18 313.516 126.031 316.156 123.734 318.094C121.453 320.016 118.289 320.977 114.242 320.977H108.078ZM108.078 315.281H114.359C116.219 315.281 117.633 314.844 118.602 313.969C119.586 313.094 120.078 311.844 120.078 310.219C120.078 308.547 119.586 307.195 118.602 306.164C117.617 305.133 116.258 304.602 114.523 304.57H108.078V315.281ZM149.464 320.508H143.862V333H136.831V298.875H149.511C153.542 298.875 156.652 299.773 158.839 301.57C161.027 303.367 162.12 305.906 162.12 309.188C162.12 311.516 161.612 313.461 160.597 315.023C159.597 316.57 158.073 317.805 156.027 318.727L163.409 332.672V333H155.862L149.464 320.508ZM143.862 314.812H149.534C151.3 314.812 152.667 314.367 153.636 313.477C154.605 312.57 155.089 311.328 155.089 309.75C155.089 308.141 154.628 306.875 153.706 305.953C152.8 305.031 151.402 304.57 149.511 304.57H143.862V314.812ZM200.319 316.711C200.319 320.07 199.725 323.016 198.537 325.547C197.35 328.078 195.647 330.031 193.428 331.406C191.225 332.781 188.694 333.469 185.834 333.469C183.006 333.469 180.483 332.789 178.264 331.43C176.045 330.07 174.327 328.133 173.108 325.617C171.889 323.086 171.272 320.18 171.256 316.898V315.211C171.256 311.852 171.858 308.898 173.061 306.352C174.28 303.789 175.991 301.828 178.194 300.469C180.412 299.094 182.944 298.406 185.787 298.406C188.631 298.406 191.155 299.094 193.358 300.469C195.577 301.828 197.287 303.789 198.491 306.352C199.709 308.898 200.319 311.844 200.319 315.188V316.711ZM193.194 315.164C193.194 311.586 192.553 308.867 191.272 307.008C189.991 305.148 188.162 304.219 185.787 304.219C183.428 304.219 181.608 305.141 180.327 306.984C179.045 308.812 178.397 311.5 178.381 315.047V316.711C178.381 320.195 179.022 322.898 180.303 324.82C181.584 326.742 183.428 327.703 185.834 327.703C188.194 327.703 190.006 326.781 191.272 324.938C192.537 323.078 193.178 320.375 193.194 316.828V315.164ZM223.986 298.875H231.017V322.5C231.017 324.672 230.533 326.594 229.564 328.266C228.611 329.922 227.259 331.203 225.509 332.109C223.759 333.016 221.783 333.469 219.58 333.469C215.97 333.469 213.158 332.555 211.142 330.727C209.127 328.883 208.119 326.281 208.119 322.922H215.197C215.197 324.594 215.548 325.828 216.252 326.625C216.955 327.422 218.064 327.82 219.58 327.82C220.923 327.82 221.994 327.359 222.791 326.438C223.588 325.516 223.986 324.203 223.986 322.5V298.875ZM262.372 318.211H248.872V327.352H264.716V333H241.841V298.875H264.669V304.57H248.872V312.703H262.372V318.211ZM300.43 321.633C300.164 325.305 298.805 328.195 296.352 330.305C293.914 332.414 290.695 333.469 286.695 333.469C282.32 333.469 278.875 332 276.359 329.062C273.859 326.109 272.609 322.062 272.609 316.922V314.836C272.609 311.555 273.188 308.664 274.344 306.164C275.5 303.664 277.148 301.75 279.289 300.422C281.445 299.078 283.945 298.406 286.789 298.406C290.727 298.406 293.898 299.461 296.305 301.57C298.711 303.68 300.102 306.641 300.477 310.453H293.445C293.273 308.25 292.656 306.656 291.594 305.672C290.547 304.672 288.945 304.172 286.789 304.172C284.445 304.172 282.688 305.016 281.516 306.703C280.359 308.375 279.766 310.977 279.734 314.508V317.086C279.734 320.773 280.289 323.469 281.398 325.172C282.523 326.875 284.289 327.727 286.695 327.727C288.867 327.727 290.484 327.234 291.547 326.25C292.625 325.25 293.242 323.711 293.398 321.633H300.43ZM334.831 304.57H324.378V333H317.347V304.57H307.034V298.875H334.831V304.57Z" fill="#F2F2F2"/>
</svg>
