<svg width="554" height="554" viewBox="0 0 554 554" fill="none" xmlns="http://www.w3.org/2000/svg">
<rect width="554" height="554" fill="#6FCF97"/>
<path d="M272.148 257.664L287.266 257.172C288.859 257.172 290.242 257.758 291.414 258.93C292.539 260.102 293.102 261.555 293.102 263.289V264.766L291.695 297.32C291.648 298.445 291.883 299.242 292.398 299.711C293.148 300.32 295.023 300.625 298.023 300.625C300.273 300.625 301.727 300.273 302.383 299.57C303.086 298.773 303.461 296.945 303.508 294.086C303.555 291.18 304.656 289.727 306.812 289.727C309.016 289.727 310.117 290.852 310.117 293.102C310.117 298.305 309.461 301.914 308.148 303.93C306.836 305.945 303.742 306.953 298.867 306.953L289.727 306.672C286.633 306.344 285.086 304.633 285.086 301.539L286.492 265.258V264.906C286.492 263.969 285.906 263.523 284.734 263.57L271.938 263.922C271.656 269.5 270.977 274.727 269.898 279.602C275.242 283.539 278.57 286.117 279.883 287.336C281.195 288.555 281.852 289.727 281.852 290.852C281.852 293.055 280.727 294.156 278.477 294.156C277.586 294.156 274.891 292.188 270.391 288.25L268.07 286.352C264.883 294.883 259.281 301.586 251.266 306.461C249.438 307.586 248.078 308.148 247.188 308.148C245.125 308.148 244.094 306.953 244.094 304.562C244.094 303.391 245.078 302.289 247.047 301.258C255.203 296.617 260.477 290.312 262.867 282.344C260.57 280.609 258.086 278.969 255.414 277.422C252.789 275.875 251.477 274.586 251.477 273.555C251.477 271.586 252.508 270.602 254.57 270.602C255.695 270.602 259 272.359 264.484 275.875C264.953 273.156 265.328 269.219 265.609 264.062L250.211 264.555H249.789C247.398 264.555 246.203 263.477 246.203 261.32C246.203 259.305 247.516 258.273 250.141 258.227L266.031 257.805L266.102 254.781L265.961 247.398C265.961 244.82 267.086 243.531 269.336 243.531C271.445 243.531 272.5 244.75 272.5 247.188L272.148 256.75V257.664Z" fill="#F2F2F2"/>
</svg>
