<svg width="554" height="554" viewBox="0 0 554 554" fill="none" xmlns="http://www.w3.org/2000/svg">
<rect width="554" height="554" fill="#F2F2F2"/>
<path d="M239.883 270.25H265.898C268.43 270.25 269.695 271.281 269.695 273.344C269.695 275.406 268.43 276.438 265.898 276.438H242.062C244.453 280.094 247.945 283.727 252.539 287.336C257.18 290.945 261.984 293.805 266.953 295.914C269.062 296.805 270.117 298.023 270.117 299.57C270.117 301.914 269.016 303.086 266.812 303.086C264.328 303.086 260.086 300.766 254.086 296.125C248.086 291.438 243.352 286.586 239.883 281.57V305.828C239.883 308.453 238.805 309.766 236.648 309.766C234.539 309.766 233.484 308.453 233.484 305.828V281.711C228.891 287.477 223.781 292.562 218.156 296.969C212.531 301.375 208.852 303.578 207.117 303.578C204.961 303.578 203.883 302.43 203.883 300.133C203.883 298.68 205.078 297.367 207.469 296.195C217.078 291.133 225.023 284.547 231.305 276.438H208.102C205.57 276.438 204.305 275.406 204.305 273.344C204.305 271.281 205.57 270.25 208.102 270.25H233.484V259.07H213.094C210.562 259.07 209.297 258.039 209.297 255.977C209.297 253.914 210.562 252.883 213.094 252.883H233.484V247.047C233.484 244.703 234.562 243.531 236.719 243.531C238.828 243.531 239.883 244.703 239.883 247.047V252.883H260.766C263.25 252.883 264.492 253.914 264.492 255.977C264.492 258.039 263.25 259.07 260.766 259.07H239.883V270.25ZM321.544 281.078C324.075 284.359 327.708 287.641 332.442 290.922C337.223 294.203 341.817 296.594 346.223 298.094C348.286 298.797 349.317 299.969 349.317 301.609C349.317 303.906 348.262 305.055 346.153 305.055C343.622 305.055 339.403 303.039 333.497 299.008C327.637 294.93 322.833 290.523 319.083 285.789V305.969C319.083 308.5 318.028 309.766 315.919 309.766C313.856 309.766 312.825 308.5 312.825 305.969V285.648C308.372 290.758 303.262 295.352 297.497 299.43C291.778 303.508 288.005 305.547 286.177 305.547C284.114 305.547 283.083 304.422 283.083 302.172C283.083 301.375 283.27 300.742 283.645 300.273C284.02 299.805 285.286 299.031 287.442 297.953C296.911 293.125 304.528 287.5 310.294 281.078H287.583C285.145 281.078 283.927 280.07 283.927 278.055C283.927 276.086 285.145 275.102 287.583 275.102H312.825V257.945H289.481C287.044 257.945 285.825 256.961 285.825 254.992C285.825 252.977 287.044 251.969 289.481 251.969H312.825V246.414C312.825 244.492 313.88 243.531 315.989 243.531C318.052 243.531 319.083 244.492 319.083 246.414V251.969H342.989C345.38 251.969 346.575 252.977 346.575 254.992C346.575 256.961 345.38 257.945 342.989 257.945H319.083V275.102H344.887C347.278 275.102 348.473 276.086 348.473 278.055C348.473 280.07 347.278 281.078 344.887 281.078H321.544ZM295.739 259.633C297.005 259.633 298.481 261.156 300.169 264.203C301.856 267.203 302.7 269.102 302.7 269.898C302.7 272.008 301.622 273.062 299.466 273.062C298.106 273.062 297.145 272.383 296.583 271.023C296.395 270.32 295.692 268.867 294.473 266.664C293.302 264.461 292.716 263.078 292.716 262.516C292.716 260.594 293.723 259.633 295.739 259.633ZM335.536 259.562C337.692 259.562 338.77 260.641 338.77 262.797C338.77 263.594 337.505 266.406 334.973 271.234C334.27 272.5 333.286 273.133 332.02 273.133C330.005 273.133 328.997 272.172 328.997 270.25C328.997 269.688 329.278 268.867 329.841 267.789C330.45 266.664 331.177 265.07 332.02 263.008C332.958 260.711 334.13 259.562 335.536 259.562Z" fill="#333333"/>
</svg>
