<svg width="52" height="52" viewBox="0 0 52 52" fill="none" xmlns="http://www.w3.org/2000/svg">
<mask id="path-1-inside-1" fill="white">
<rect width="52" height="52" rx="1"/>
</mask>
<rect width="52" height="52" rx="1" stroke="black" stroke-width="4" mask="url(#path-1-inside-1)"/>
<path d="M14.4219 32.1523C13.8438 33.0195 13.2734 33.7266 12.7109 34.2734C12.1562 34.8125 11.6172 35.082 11.0938 35.082C10.8281 35.082 10.6289 35.0195 10.4961 34.8945C10.2695 34.6914 10.1562 34.5 10.1562 34.3203C10.1562 34.1406 10.2148 34.0078 10.332 33.9219C11.5117 33.0703 12.8203 30.5703 14.2578 26.4219L14.9492 24.4531C15.7461 22.2031 16.4219 20.8086 16.9766 20.2695C17.1719 20.1211 17.375 20.0469 17.5859 20.0469C17.7969 20.0469 17.9805 20.082 18.1367 20.1523C18.293 20.2148 18.4297 20.2969 18.5469 20.3984C18.8125 20.6328 18.9453 20.9062 18.9453 21.2188C18.9453 21.3359 18.8906 21.5039 18.7812 21.7227C18.6719 21.9414 18.5469 22.2266 18.4062 22.5781L16.918 26.7148C18.8164 26.3711 20.3828 25.5859 21.6172 24.3594C22.7734 23.2109 23.3516 22.0312 23.3516 20.8203C23.3516 19.6719 22.8359 18.918 21.8047 18.5586C21.4531 18.4336 21.043 18.3711 20.5742 18.3711C20.1133 18.3711 19.6406 18.4297 19.1562 18.5469C18.6719 18.6641 18.1953 18.8164 17.7266 19.0039C16.7812 19.3867 16.0078 19.8359 15.4062 20.3516C15.25 20.5 15.0781 20.5742 14.8906 20.5742C14.7031 20.5742 14.5273 20.5352 14.3633 20.457C14.1992 20.3789 14.0547 20.2773 13.9297 20.1523C13.6406 19.8789 13.4961 19.6016 13.4961 19.3203C13.4961 19.0312 13.5977 18.7734 13.8008 18.5469C14.0039 18.3203 14.2734 18.1172 14.6094 17.9375C14.9453 17.75 15.332 17.5859 15.7695 17.4453C16.207 17.2969 16.6562 17.1719 17.1172 17.0703C18.0547 16.875 18.9844 16.7773 19.9062 16.7773C20.8359 16.7773 21.6836 16.8945 22.4492 17.1289C23.2227 17.3555 23.8594 17.6641 24.3594 18.0547C25.3672 18.8359 25.8711 19.8281 25.8711 21.0312V21.2188C25.8008 22.6953 25.2422 23.9961 24.1953 25.1211C23.2812 26.0977 22.1016 26.8672 20.6562 27.4297C19.3516 27.9453 18.1172 28.2031 16.9531 28.2031H16.6484C16.5469 28.2031 16.4492 28.1953 16.3555 28.1797C15.6523 29.9531 15.0078 31.2773 14.4219 32.1523ZM25.4375 32.2344C25.5078 31.7266 25.6562 31.0273 25.8828 30.1367C26.1172 29.2383 26.4141 28.2812 26.7734 27.2656C27.5938 24.9375 28.5664 22.8633 29.6914 21.043C29.8477 20.793 30.0469 20.6484 30.2891 20.6094C30.6328 20.5625 30.9336 20.5391 31.1914 20.5391C31.457 20.5391 31.6914 20.5703 31.8945 20.6328C32.1055 20.6875 32.2695 20.7617 32.3867 20.8555C32.6211 21.0508 32.6602 21.2578 32.5039 21.4766C31.0898 23.6094 29.8555 26.2109 28.8008 29.2812C28.4023 30.4531 28.1641 31.2695 28.0859 31.7305C28.0078 32.1836 27.9492 32.4961 27.9102 32.668C27.8789 32.832 27.8633 32.9766 27.8633 33.1016C27.8633 33.3594 28.0273 33.4883 28.3555 33.4883C28.6836 33.4883 29.0508 33.4141 29.457 33.2656C29.8633 33.1094 30.3008 32.8945 30.7695 32.6211C31.2383 32.3398 31.7227 32 32.2227 31.6016C32.7305 31.2031 33.2266 30.7578 33.7109 30.2656C34.1953 29.7656 34.6523 29.2266 35.082 28.6484C35.5117 28.0703 35.8867 27.4609 36.207 26.8203C36.918 25.4141 37.2734 24.0273 37.2734 22.6602C37.2734 20.7852 36.5117 19.5391 34.9883 18.9219C34.457 18.7109 33.9023 18.6055 33.3242 18.6055C32.7539 18.6055 32.2695 18.6445 31.8711 18.7227C31.4727 18.793 31.0898 18.8945 30.7227 19.0273C29.9805 19.293 29.3555 19.6484 28.8477 20.0938C28.7148 20.1719 28.5547 20.2109 28.3672 20.2109C28.1797 20.2109 27.9766 20.1562 27.7578 20.0469C27.5469 19.9375 27.3555 19.8008 27.1836 19.6367C26.793 19.2539 26.6367 18.8867 26.7148 18.5352C26.8008 18.0352 27.5508 17.6016 28.9648 17.2344C30.1523 16.9297 31.3477 16.7773 32.5508 16.7773C33.7539 16.7773 34.8359 16.9414 35.7969 17.2695C36.7656 17.5977 37.5508 18.0391 38.1523 18.5938C39.2773 19.6406 39.8398 21.043 39.8398 22.8008C39.8398 25.1289 39.0352 27.375 37.4258 29.5391C35.9492 31.5469 34.1914 33.0703 32.1523 34.1094C30.832 34.7812 29.6172 35.1172 28.5078 35.1172C27.6406 35.1172 26.8945 34.8633 26.2695 34.3555C25.5977 33.8164 25.3203 33.1094 25.4375 32.2344Z" fill="black"/>
</svg>
